<svg xmlns="http://www.w3.org/2000/svg" viewBox="0 0 180 141" width="720" height="564">
  <defs>
    <linearGradient id="rainbow" x1="0%" y1="0%" x2="100%" y2="0%">
      <stop offset="0%"   stop-color="#ff0000"/>
      <stop offset="16%"  stop-color="#ff8800"/>
      <stop offset="33%"  stop-color="#ffee00"/>
      <stop offset="50%"  stop-color="#00cc44"/>
      <stop offset="66%"  stop-color="#0088ff"/>
      <stop offset="83%"  stop-color="#6600ff"/>
      <stop offset="100%" stop-color="#cc00ff"/>
    </linearGradient>
  </defs>
  <path fill="url(#rainbow)" fill-rule="evenodd" d="M 134.20,132.30 L 133.40,132.10 L 132.50,131.00 L 132.30,125.60 L 132.50,123.00 L 133.30,120.40 L 132.70,118.20 L 131.90,116.60 L 131.00,115.70 L 129.40,114.90 L 126.60,115.10 L 124.90,116.40 L 123.60,119.10 L 122.90,118.80 L 122.70,116.60 L 121.40,115.10 L 120.20,115.30 L 119.10,116.40 L 118.50,117.60 L 117.20,118.50 L 116.20,118.30 L 115.10,117.40 L 114.70,115.60 L 113.90,114.20 L 113.70,109.80 L 113.30,108.80 L 113.30,105.80 L 112.90,104.20 L 112.90,87.60 L 112.60,87.10 L 111.80,87.10 L 111.50,87.40 L 110.10,90.00 L 109.90,97.20 L 108.90,102.20 L 108.10,102.20 L 107.10,100.20 L 106.90,99.00 L 106.40,98.50 L 105.80,98.70 L 105.30,100.20 L 105.90,101.40 L 106.10,103.40 L 105.20,103.70 L 104.30,102.20 L 104.10,100.80 L 103.60,100.30 L 103.00,100.30 L 102.50,100.80 L 102.50,103.60 L 103.10,105.20 L 102.60,105.90 L 101.80,105.90 L 101.30,105.40 L 101.50,104.00 L 101.10,103.40 L 101.10,101.60 L 100.40,100.70 L 100.00,100.70 L 99.30,101.40 L 99.30,104.40 L 99.70,105.40 L 99.70,107.20 L 99.40,107.50 L 98.60,107.50 L 98.30,107.20 L 97.90,103.80 L 97.00,102.50 L 96.20,102.50 L 95.50,103.40 L 95.50,105.40 L 96.10,107.20 L 95.60,107.90 L 95.00,107.90 L 94.50,107.40 L 94.30,103.20 L 93.40,102.30 L 92.40,102.50 L 91.50,103.60 L 91.70,107.40 L 91.20,107.90 L 90.10,107.20 L 89.70,103.80 L 89.30,103.00 L 88.60,102.50 L 88.00,102.50 L 87.30,103.00 L 87.50,107.40 L 87.20,107.70 L 86.80,107.90 L 85.70,107.40 L 85.70,104.40 L 85.50,103.40 L 84.80,102.30 L 83.50,102.60 L 83.10,103.40 L 82.90,106.40 L 82.00,106.70 L 81.50,106.00 L 81.90,102.00 L 81.20,100.90 L 80.10,101.20 L 79.70,102.20 L 79.70,105.00 L 79.00,106.10 L 78.20,106.10 L 77.70,105.40 L 77.70,104.20 L 78.70,101.80 L 78.70,100.40 L 78.20,99.90 L 77.40,99.90 L 77.10,100.20 L 77.10,102.40 L 76.40,103.50 L 75.70,102.80 L 76.10,100.20 L 76.10,99.00 L 75.80,98.50 L 75.00,98.50 L 74.70,99.00 L 74.70,101.20 L 74.40,101.50 L 74.00,101.50 L 73.10,100.60 L 71.90,97.80 L 71.70,94.20 L 71.30,93.20 L 70.90,89.60 L 69.90,87.80 L 69.20,87.50 L 68.70,88.00 L 68.90,89.60 L 68.50,95.80 L 68.10,97.60 L 67.90,104.40 L 67.10,108.00 L 66.90,112.00 L 65.50,117.20 L 64.60,118.50 L 64.00,118.50 L 63.10,117.80 L 62.90,116.80 L 62.20,115.90 L 60.60,115.30 L 59.10,116.40 L 58.70,117.80 L 57.80,118.50 L 57.10,118.00 L 56.30,116.20 L 54.00,114.30 L 52.20,114.10 L 50.00,115.10 L 48.10,117.60 L 47.90,119.40 L 47.90,123.00 L 48.90,126.20 L 48.70,129.60 L 47.40,131.90 L 46.60,132.10 L 45.50,131.40 L 44.50,128.60 L 44.50,126.00 L 47.70,114.00 L 47.90,108.60 L 46.40,106.90 L 45.00,105.90 L 42.00,105.90 L 41.70,105.60 L 42.30,102.40 L 42.10,96.80 L 40.60,95.50 L 39.00,95.50 L 37.60,95.90 L 36.90,95.40 L 37.90,93.60 L 38.10,92.00 L 36.20,90.30 L 34.80,89.90 L 34.10,89.20 L 34.10,88.20 L 36.10,84.00 L 38.70,81.00 L 41.60,78.30 L 46.40,75.10 L 52.00,72.70 L 52.70,72.20 L 52.90,71.00 L 52.40,70.70 L 49.80,70.90 L 45.60,71.90 L 45.50,71.60 L 46.40,70.90 L 50.80,69.30 L 51.30,68.80 L 51.30,68.20 L 50.80,67.90 L 44.20,68.10 L 43.20,68.50 L 42.30,69.40 L 42.10,71.20 L 42.50,72.20 L 43.30,73.00 L 42.20,73.50 L 40.20,72.70 L 38.40,71.30 L 37.30,70.00 L 36.70,68.20 L 36.70,66.00 L 33.70,59.60 L 31.70,52.60 L 29.50,49.40 L 29.50,47.40 L 30.90,44.60 L 30.70,41.40 L 29.50,39.20 L 28.60,38.90 L 26.90,37.00 L 26.90,31.40 L 26.30,29.60 L 25.10,28.20 L 24.90,25.60 L 22.40,23.50 L 19.40,21.70 L 18.30,20.60 L 16.90,18.40 L 16.70,15.60 L 17.60,14.10 L 21.40,12.70 L 23.80,12.70 L 25.20,12.30 L 32.80,12.30 L 37.00,12.90 L 44.80,15.10 L 45.60,15.70 L 46.60,15.90 L 51.60,18.30 L 55.60,21.10 L 58.70,23.80 L 64.50,30.60 L 64.20,31.10 L 63.80,31.10 L 62.80,30.30 L 61.60,29.90 L 61.00,29.10 L 59.20,28.10 L 57.40,26.50 L 51.40,23.30 L 47.20,21.70 L 44.80,21.50 L 44.00,21.10 L 43.30,20.20 L 42.90,18.20 L 41.80,17.10 L 40.20,16.50 L 37.00,16.50 L 35.90,17.40 L 35.70,18.00 L 38.60,21.10 L 39.60,21.30 L 41.40,22.30 L 42.20,22.30 L 44.20,23.10 L 47.20,23.50 L 50.40,24.50 L 56.20,27.50 L 58.20,28.70 L 59.20,29.70 L 60.70,30.40 L 60.40,31.30 L 59.00,31.10 L 58.70,31.40 L 59.50,32.20 L 59.50,32.60 L 58.60,33.50 L 57.20,34.10 L 56.60,35.10 L 53.00,35.10 L 51.90,34.00 L 51.90,33.00 L 52.30,32.20 L 53.40,31.30 L 57.20,30.90 L 56.80,30.30 L 51.60,29.50 L 48.80,28.30 L 39.80,22.70 L 38.20,21.30 L 37.20,21.10 L 32.40,18.50 L 31.00,18.30 L 29.80,18.50 L 28.80,19.10 L 27.90,20.00 L 27.50,21.20 L 27.50,23.00 L 28.10,24.40 L 31.90,28.20 L 34.10,31.60 L 35.80,32.90 L 38.00,33.90 L 39.20,35.90 L 53.80,35.90 L 54.30,36.20 L 53.40,36.70 L 51.40,36.90 L 45.20,37.10 L 43.40,37.90 L 41.20,38.30 L 39.30,39.60 L 39.30,40.60 L 40.40,41.90 L 47.60,42.70 L 49.80,43.70 L 50.80,44.70 L 52.30,45.40 L 52.20,45.70 L 50.80,45.70 L 47.20,44.30 L 44.20,43.90 L 43.20,44.10 L 41.70,45.40 L 41.70,46.20 L 42.20,47.10 L 43.60,48.10 L 45.40,48.70 L 46.60,48.70 L 51.40,47.30 L 52.20,46.90 L 53.00,45.90 L 56.40,45.70 L 57.60,44.90 L 60.90,41.60 L 62.50,38.80 L 63.30,38.00 L 63.80,36.70 L 64.40,36.50 L 65.20,35.50 L 66.60,35.70 L 67.80,34.90 L 68.50,35.00 L 68.50,35.80 L 66.90,38.00 L 66.70,40.00 L 66.10,41.60 L 65.90,45.20 L 64.90,48.00 L 64.90,48.80 L 63.90,50.60 L 61.50,53.20 L 60.10,55.80 L 59.90,57.60 L 60.60,59.30 L 61.60,59.30 L 62.40,57.50 L 63.40,57.50 L 63.70,57.80 L 63.70,58.40 L 61.90,60.20 L 61.70,60.80 L 61.70,63.80 L 61.10,64.00 L 60.10,62.60 L 59.70,61.00 L 58.90,60.20 L 58.90,55.00 L 60.70,52.40 L 60.70,51.80 L 60.20,51.70 L 59.40,52.50 L 58.70,54.00 L 57.90,54.60 L 57.70,59.40 L 59.10,62.80 L 59.70,63.20 L 59.90,64.40 L 60.90,65.80 L 61.90,68.80 L 62.90,70.40 L 62.70,72.00 L 59.70,74.60 L 58.90,76.20 L 58.90,77.80 L 59.10,78.40 L 60.90,80.00 L 61.90,82.60 L 63.40,84.10 L 65.60,84.70 L 66.40,84.30 L 68.40,84.10 L 72.90,88.20 L 74.50,91.20 L 74.70,96.20 L 75.20,96.90 L 76.10,96.40 L 76.30,93.80 L 76.80,93.10 L 77.20,93.10 L 77.70,93.80 L 77.70,95.20 L 77.10,97.80 L 77.60,98.30 L 78.40,98.30 L 79.30,96.80 L 79.50,94.00 L 80.20,93.30 L 80.60,93.50 L 80.90,94.80 L 80.10,96.60 L 79.90,99.20 L 80.40,99.90 L 81.40,100.30 L 82.30,99.40 L 82.10,98.20 L 82.50,97.60 L 82.70,94.60 L 83.20,94.10 L 84.00,94.10 L 84.50,95.00 L 83.50,98.20 L 83.50,100.40 L 84.20,100.90 L 85.00,100.90 L 85.70,100.00 L 86.30,95.40 L 86.60,94.90 L 87.20,94.90 L 87.70,95.40 L 87.50,100.40 L 88.40,101.10 L 89.20,101.10 L 89.90,100.40 L 89.90,95.80 L 90.40,95.30 L 91.00,95.30 L 91.50,96.20 L 91.30,99.40 L 91.50,100.20 L 92.20,100.90 L 93.60,100.90 L 94.50,100.00 L 93.50,96.00 L 93.50,95.40 L 94.00,94.90 L 94.60,94.90 L 95.10,95.40 L 95.10,100.00 L 96.40,100.90 L 97.50,100.20 L 97.50,98.60 L 96.90,96.00 L 97.40,94.70 L 97.80,94.70 L 98.30,95.40 L 98.30,96.80 L 98.90,99.00 L 99.60,99.90 L 100.20,99.90 L 100.90,99.00 L 100.90,96.80 L 100.30,95.20 L 100.30,94.60 L 100.80,94.10 L 101.40,94.10 L 101.70,94.60 L 101.70,97.40 L 101.90,98.20 L 102.60,98.90 L 103.40,98.70 L 103.90,98.20 L 103.90,97.00 L 103.30,95.40 L 103.30,94.60 L 103.60,94.30 L 104.40,94.30 L 104.90,94.80 L 105.10,96.60 L 105.40,96.90 L 106.60,96.90 L 107.10,96.20 L 107.10,94.00 L 107.90,92.00 L 108.10,90.20 L 109.90,86.80 L 112.40,84.30 L 116.20,84.30 L 117.20,83.50 L 118.80,83.30 L 119.70,82.00 L 120.10,80.00 L 121.10,79.20 L 121.90,78.00 L 121.90,76.00 L 120.90,74.00 L 120.20,73.10 L 118.00,71.70 L 117.50,71.20 L 117.50,70.60 L 118.90,68.60 L 121.10,64.20 L 121.90,63.40 L 122.30,62.20 L 122.90,61.60 L 122.90,60.00 L 123.30,59.20 L 124.60,59.10 L 128.00,56.90 L 130.40,56.10 L 132.00,55.70 L 133.20,56.10 L 136.40,55.70 L 139.40,53.90 L 141.10,52.20 L 141.50,51.40 L 141.30,50.40 L 140.40,49.50 L 139.60,49.30 L 138.00,49.90 L 134.80,53.10 L 134.50,53.00 L 134.50,52.60 L 135.10,51.80 L 135.00,51.10 L 134.20,51.10 L 133.60,51.70 L 131.20,52.90 L 130.40,52.90 L 126.20,49.90 L 120.90,43.60 L 118.10,40.80 L 117.70,40.00 L 116.40,38.70 L 116.00,38.70 L 116.10,39.80 L 120.70,45.20 L 122.10,48.40 L 122.90,49.40 L 122.90,51.40 L 123.70,52.40 L 123.90,56.20 L 123.60,56.70 L 123.20,56.70 L 122.90,56.20 L 122.70,54.00 L 121.90,53.40 L 121.60,52.30 L 121.10,52.40 L 121.10,53.20 L 121.70,53.60 L 121.90,54.40 L 122.30,57.60 L 121.70,61.20 L 120.90,62.20 L 120.70,63.00 L 120.00,63.30 L 119.50,62.60 L 119.30,60.60 L 117.90,59.20 L 117.90,58.00 L 118.80,57.70 L 119.80,58.90 L 120.40,58.90 L 120.90,58.20 L 120.90,56.00 L 119.70,53.60 L 116.10,49.00 L 115.70,47.60 L 115.70,46.00 L 115.10,44.80 L 114.70,39.00 L 112.90,35.40 L 113.40,34.90 L 114.40,35.30 L 116.20,35.30 L 116.50,36.20 L 118.50,38.80 L 120.10,41.60 L 122.40,44.10 L 125.00,45.90 L 127.80,45.90 L 129.20,44.90 L 130.40,44.70 L 131.20,43.90 L 133.00,42.90 L 136.80,42.10 L 140.20,41.90 L 141.50,40.80 L 141.70,40.20 L 141.30,38.40 L 139.60,37.50 L 137.60,37.10 L 128.60,36.70 L 128.00,36.30 L 131.80,35.90 L 142.40,35.90 L 144.10,34.40 L 145.10,32.00 L 147.30,30.00 L 149.20,27.70 L 149.90,27.60 L 149.90,29.00 L 150.80,29.90 L 152.30,29.20 L 152.30,27.60 L 151.40,26.90 L 150.80,26.90 L 150.70,26.20 L 152.70,24.40 L 153.10,23.60 L 153.10,22.40 L 152.10,20.00 L 151.00,18.90 L 149.20,18.50 L 140.40,23.10 L 138.60,24.50 L 136.00,25.70 L 132.60,27.90 L 127.00,29.90 L 124.80,30.10 L 122.40,30.90 L 120.80,30.90 L 120.30,30.60 L 120.40,30.10 L 123.00,29.30 L 124.20,28.30 L 124.80,28.30 L 132.00,24.50 L 133.00,24.30 L 138.60,21.50 L 145.60,19.50 L 146.70,18.20 L 146.70,17.00 L 145.60,15.90 L 144.60,15.50 L 141.20,15.50 L 139.60,16.10 L 138.70,17.00 L 138.90,19.00 L 138.20,19.90 L 133.20,21.50 L 129.40,23.30 L 126.40,25.30 L 125.60,25.50 L 122.80,27.70 L 120.60,28.90 L 119.60,29.90 L 118.00,30.70 L 117.70,30.60 L 117.70,30.20 L 121.70,25.00 L 126.60,20.50 L 130.00,18.10 L 132.20,17.30 L 133.60,16.30 L 142.20,13.50 L 143.40,13.50 L 147.80,12.50 L 155.60,12.10 L 157.40,12.50 L 161.40,12.70 L 163.60,13.70 L 164.90,15.00 L 164.90,18.40 L 163.50,20.80 L 161.00,23.10 L 158.80,24.50 L 156.20,27.90 L 154.30,29.00 L 154.10,30.00 L 154.90,32.40 L 155.30,36.20 L 154.70,37.40 L 152.30,39.80 L 151.70,41.00 L 150.30,42.60 L 150.30,44.60 L 151.10,46.20 L 151.50,49.20 L 149.50,52.80 L 149.30,55.40 L 148.50,57.00 L 146.70,59.40 L 146.50,62.40 L 146.10,63.60 L 144.70,65.80 L 144.10,69.40 L 143.30,70.80 L 141.60,72.10 L 136.60,73.50 L 135.90,72.80 L 137.20,72.30 L 138.10,71.00 L 138.10,69.60 L 136.80,68.30 L 135.80,67.90 L 129.60,67.90 L 129.10,68.40 L 129.10,69.20 L 129.40,69.50 L 131.80,70.10 L 133.40,70.90 L 134.30,71.80 L 134.30,72.20 L 129.60,71.10 L 126.60,71.10 L 125.90,71.80 L 125.90,72.60 L 126.40,73.10 L 131.00,74.50 L 132.80,75.50 L 134.60,75.90 L 135.40,76.50 L 136.60,76.70 L 138.60,77.70 L 141.80,80.10 L 145.10,84.00 L 147.10,88.40 L 147.10,89.40 L 146.40,90.10 L 145.40,90.30 L 144.10,91.80 L 144.10,93.60 L 144.50,95.20 L 143.40,95.90 L 140.80,96.10 L 139.90,97.00 L 139.30,98.20 L 138.90,100.20 L 139.50,101.40 L 140.10,104.40 L 139.60,104.90 L 136.80,104.70 L 136.00,105.10 L 134.90,106.60 L 134.50,108.20 L 133.90,109.20 L 133.90,117.20 L 134.70,119.80 L 135.70,121.80 L 135.90,123.40 L 136.70,125.40 L 136.50,129.60 L 135.70,131.20 L 134.20,132.30 Z M 90.60,61.90 L 89.80,61.70 L 89.30,61.20 L 88.50,59.40 L 88.70,55.80 L 89.30,54.40 L 90.30,53.20 L 88.00,49.90 L 87.20,50.10 L 81.80,55.70 L 80.40,56.70 L 79.20,56.90 L 78.60,56.70 L 78.30,56.20 L 79.10,54.60 L 83.80,50.30 L 85.60,48.90 L 87.60,48.30 L 87.70,47.20 L 87.30,46.60 L 87.30,45.00 L 86.30,42.00 L 86.30,40.40 L 85.70,38.80 L 85.50,34.00 L 85.10,32.60 L 84.30,24.00 L 82.70,18.00 L 80.90,15.00 L 78.40,12.70 L 77.00,12.10 L 76.00,12.10 L 74.40,13.50 L 73.00,13.70 L 71.90,12.60 L 71.90,11.20 L 73.20,9.70 L 75.80,9.50 L 77.40,10.10 L 79.50,11.60 L 82.10,14.60 L 83.50,17.00 L 85.50,22.40 L 85.70,24.00 L 87.70,30.00 L 89.00,31.10 L 91.40,31.30 L 92.60,30.90 L 93.70,29.40 L 95.30,24.60 L 95.50,22.20 L 96.70,18.20 L 99.30,13.00 L 101.60,10.70 L 105.40,8.90 L 107.20,8.90 L 108.80,9.30 L 110.90,11.00 L 111.50,12.60 L 111.50,13.40 L 110.40,15.10 L 109.00,15.50 L 108.10,14.80 L 108.10,11.80 L 107.20,10.70 L 104.20,10.70 L 103.00,11.30 L 100.70,13.20 L 98.50,16.80 L 97.90,19.40 L 97.10,21.20 L 97.10,24.00 L 96.30,28.00 L 96.10,32.80 L 95.30,36.20 L 95.10,39.40 L 92.50,48.40 L 92.80,48.90 L 94.80,48.70 L 95.60,49.10 L 96.20,49.90 L 101.00,53.50 L 102.70,55.40 L 102.90,56.20 L 102.60,56.70 L 102.00,56.90 L 100.40,56.70 L 93.40,49.70 L 92.80,49.50 L 92.10,50.40 L 92.10,51.00 L 90.90,53.40 L 92.80,55.50 L 93.10,54.60 L 93.10,52.40 L 93.40,52.10 L 94.60,52.30 L 95.90,54.40 L 96.30,55.80 L 96.30,57.40 L 95.60,58.30 L 94.80,58.30 L 92.80,56.10 L 92.30,56.80 L 92.30,59.40 L 91.30,61.40 L 90.60,61.90 Z M 56.50,59.00 L 57.10,58.40 L 56.90,55.40 L 57.50,54.20 L 58.10,50.20 L 58.90,48.80 L 58.90,48.20 L 61.30,44.20 L 64.10,41.20 L 64.30,40.20 L 64.90,39.60 L 64.60,39.10 L 62.90,40.40 L 61.10,42.40 L 60.90,43.00 L 59.70,44.00 L 58.50,45.80 L 55.60,48.70 L 51.40,52.10 L 49.40,52.30 L 46.80,51.10 L 46.20,51.10 L 45.90,51.40 L 45.90,52.40 L 45.60,52.50 L 41.40,49.10 L 40.20,49.50 L 39.30,50.80 L 39.50,52.00 L 41.20,53.90 L 44.40,55.70 L 47.40,56.10 L 48.20,55.50 L 48.80,55.50 L 53.00,56.90 L 56.50,59.00 Z M 120.30,106.80 L 121.70,105.60 L 122.00,104.90 L 123.60,105.10 L 124.40,103.90 L 125.20,104.90 L 125.80,105.10 L 128.00,104.70 L 128.70,103.80 L 128.90,102.40 L 127.70,100.00 L 126.80,99.10 L 124.80,97.90 L 124.30,97.20 L 120.50,90.00 L 119.90,89.40 L 119.50,88.20 L 120.80,88.90 L 122.30,91.00 L 124.70,93.40 L 127.30,97.20 L 127.70,98.40 L 129.40,100.50 L 130.40,100.50 L 130.90,99.80 L 130.70,97.60 L 124.90,92.00 L 124.10,91.00 L 123.90,90.20 L 124.40,90.10 L 125.00,90.70 L 126.20,91.10 L 129.90,94.80 L 131.20,97.30 L 132.00,97.90 L 133.00,97.90 L 133.90,96.60 L 133.70,94.80 L 134.10,94.40 L 134.10,93.40 L 135.80,93.30 L 136.70,92.40 L 136.50,90.80 L 134.60,88.90 L 133.60,88.30 L 131.40,87.90 L 125.00,84.50 L 123.20,84.30 L 123.10,84.80 L 123.80,85.50 L 124.80,86.10 L 126.00,86.30 L 128.20,87.90 L 129.40,88.30 L 132.10,90.80 L 132.30,91.60 L 131.80,92.10 L 131.20,92.50 L 130.20,92.50 L 124.40,88.30 L 119.60,85.50 L 118.70,85.60 L 118.90,86.80 L 118.60,87.10 L 117.20,86.30 L 116.40,86.30 L 115.90,86.80 L 115.90,87.60 L 115.30,88.00 L 115.10,89.00 L 115.90,90.80 L 116.10,104.40 L 117.20,106.70 L 120.30,106.80 Z M 63.10,106.80 L 64.90,104.00 L 64.70,100.40 L 64.30,99.00 L 64.30,91.20 L 64.90,90.20 L 64.90,88.60 L 64.30,87.60 L 64.50,86.80 L 64.00,86.30 L 62.80,86.70 L 62.20,87.30 L 61.50,87.20 L 61.70,86.00 L 61.40,85.70 L 59.40,86.30 L 54.00,89.70 L 51.40,91.90 L 49.20,93.10 L 48.90,92.40 L 47.90,91.60 L 47.90,91.20 L 52.40,87.50 L 57.60,84.90 L 57.90,84.40 L 57.00,84.10 L 50.40,87.10 L 49.00,88.10 L 47.00,88.30 L 46.20,88.70 L 44.10,90.60 L 43.50,92.60 L 44.40,93.50 L 46.10,93.60 L 46.10,94.60 L 46.70,95.20 L 46.50,97.00 L 47.20,97.90 L 48.20,98.10 L 49.90,96.40 L 50.10,95.40 L 50.90,94.40 L 53.20,92.10 L 55.20,90.50 L 56.30,90.40 L 55.70,91.80 L 52.40,95.30 L 50.10,97.20 L 49.50,98.20 L 49.30,99.80 L 50.00,100.70 L 50.60,100.70 L 51.90,99.60 L 51.90,99.20 L 55.30,94.00 L 56.90,92.40 L 58.90,89.60 L 60.40,88.10 L 60.80,88.10 L 60.70,89.00 L 57.10,94.80 L 56.10,97.20 L 55.20,98.30 L 54.00,98.90 L 52.10,100.60 L 51.50,103.40 L 51.90,104.40 L 53.20,105.30 L 56.20,104.70 L 57.40,105.50 L 58.40,104.90 L 59.80,106.90 L 63.10,106.80 Z M 109.80,74.70 L 104.20,74.70 L 101.80,74.30 L 100.40,73.70 L 98.50,71.80 L 97.30,70.00 L 96.30,67.40 L 96.50,64.00 L 97.50,61.80 L 98.30,60.80 L 100.60,58.90 L 102.40,58.50 L 103.20,57.90 L 104.80,57.90 L 107.80,57.30 L 111.80,57.50 L 114.80,58.30 L 115.80,58.90 L 117.30,60.60 L 117.90,62.40 L 117.90,63.80 L 117.70,65.60 L 117.10,66.40 L 117.10,67.40 L 116.50,68.80 L 115.10,71.00 L 113.20,73.10 L 111.60,74.10 L 109.80,74.70 Z M 74.00,74.90 L 70.40,74.70 L 67.80,73.30 L 65.70,71.20 L 64.10,68.20 L 63.50,66.00 L 63.50,62.40 L 63.90,60.20 L 66.20,58.10 L 71.00,57.50 L 77.80,57.90 L 80.80,59.10 L 83.10,61.20 L 83.90,62.60 L 84.50,64.00 L 84.70,66.80 L 82.70,71.40 L 81.00,73.10 L 79.60,73.90 L 77.00,74.70 L 74.00,74.90 Z M 37.10,87.40 L 37.90,86.80 L 40.20,83.90 L 44.60,80.50 L 48.80,78.50 L 49.80,78.50 L 53.60,77.50 L 55.30,76.40 L 54.60,76.10 L 52.80,76.10 L 48.80,76.70 L 44.40,78.70 L 40.80,81.30 L 38.50,83.40 L 36.50,86.00 L 36.30,87.20 L 36.60,87.50 L 37.10,87.40 Z M 144.10,87.00 L 144.50,86.60 L 144.50,85.60 L 143.30,83.80 L 138.00,79.30 L 132.00,76.70 L 130.00,76.50 L 128.40,75.90 L 127.20,76.10 L 126.60,75.70 L 125.90,76.20 L 126.10,76.80 L 127.20,77.50 L 129.40,77.50 L 131.40,78.30 L 133.60,78.70 L 134.40,79.30 L 136.20,79.90 L 137.40,80.70 L 138.40,81.90 L 139.40,82.30 L 141.10,84.00 L 143.00,86.90 L 144.10,87.00 Z M 95.00,86.90 L 93.60,86.30 L 92.70,85.40 L 91.50,83.40 L 91.10,80.60 L 91.30,78.80 L 90.90,77.80 L 91.10,75.20 L 90.60,73.30 L 89.70,73.60 L 89.90,80.20 L 88.90,84.00 L 87.50,85.80 L 86.20,86.70 L 85.00,86.50 L 83.90,84.60 L 83.70,81.00 L 84.30,79.80 L 84.30,78.80 L 84.90,77.20 L 86.10,74.60 L 87.10,73.20 L 88.40,71.90 L 90.00,70.90 L 91.00,71.10 L 93.10,72.80 L 95.10,76.40 L 96.10,79.40 L 96.70,84.40 L 96.10,86.20 L 95.00,86.90 Z M 78.60,90.70 L 77.70,90.20 L 76.90,87.20 L 74.10,84.60 L 74.20,84.30 L 75.20,84.30 L 76.50,85.40 L 78.20,87.70 L 78.80,87.70 L 79.10,87.20 L 78.90,86.00 L 76.60,83.90 L 74.80,83.30 L 73.40,83.30 L 72.80,83.70 L 72.00,83.70 L 71.40,83.30 L 66.60,83.30 L 66.30,82.80 L 69.00,81.90 L 72.00,81.50 L 77.60,81.90 L 78.60,81.50 L 81.80,78.70 L 82.20,78.70 L 82.30,79.40 L 81.50,80.20 L 80.70,82.40 L 80.70,84.60 L 81.70,86.20 L 81.90,87.40 L 78.60,90.70 Z M 103.60,90.50 L 102.80,90.50 L 102.00,89.90 L 99.30,87.20 L 99.30,86.40 L 100.10,85.20 L 100.10,83.00 L 98.30,80.00 L 98.10,79.40 L 98.40,79.10 L 100.80,81.10 L 102.80,82.10 L 104.20,82.10 L 106.00,81.30 L 108.80,81.30 L 110.20,81.90 L 111.20,81.70 L 113.90,82.60 L 113.60,83.50 L 109.20,83.50 L 107.20,84.10 L 106.70,85.20 L 105.60,85.90 L 104.50,87.40 L 104.10,89.60 L 103.60,90.50 Z M 54.60,43.50 L 52.80,43.30 L 51.50,42.20 L 51.30,40.80 L 51.90,39.60 L 53.20,38.30 L 55.80,37.90 L 57.20,37.10 L 60.40,36.50 L 61.00,35.70 L 60.20,36.10 L 58.60,36.10 L 57.60,35.70 L 57.30,35.20 L 59.60,34.90 L 61.10,33.60 L 61.60,32.70 L 63.80,33.30 L 64.70,34.40 L 64.50,35.00 L 62.10,35.40 L 63.20,35.90 L 63.50,36.60 L 59.00,39.90 L 56.40,42.70 L 54.60,43.50 Z M 128.20,43.50 L 127.20,43.50 L 125.80,42.90 L 122.40,39.90 L 117.60,36.70 L 117.50,36.20 L 118.00,35.70 L 119.20,35.70 L 120.20,36.30 L 121.00,36.30 L 122.20,37.10 L 123.60,36.90 L 126.00,38.10 L 127.60,38.10 L 128.60,38.90 L 129.40,39.10 L 130.10,40.20 L 130.10,41.80 L 129.20,43.10 L 128.20,43.50 Z M 47.50,65.60 L 49.20,64.90 L 51.40,64.70 L 52.00,64.30 L 52.30,63.20 L 51.40,62.30 L 41.40,58.70 L 40.20,58.90 L 39.70,59.40 L 39.90,60.20 L 40.90,61.40 L 41.30,63.20 L 41.80,63.90 L 43.40,64.90 L 45.60,65.70 L 47.50,65.60 Z M 137.90,88.20 L 139.30,87.40 L 139.70,86.60 L 139.50,86.00 L 138.00,84.30 L 136.00,82.90 L 134.00,82.10 L 131.00,81.50 L 127.60,81.50 L 127.10,81.80 L 127.10,82.60 L 127.60,83.10 L 131.20,84.30 L 132.80,85.10 L 136.60,88.10 L 137.90,88.20 Z M 43.30,88.20 L 44.20,87.90 L 47.00,85.70 L 49.40,84.30 L 51.60,83.30 L 53.40,83.10 L 53.30,82.00 L 53.00,81.70 L 48.60,81.70 L 45.60,82.50 L 43.40,83.50 L 41.30,85.40 L 40.70,86.60 L 40.90,87.40 L 41.60,88.10 L 43.30,88.20 Z M 59.40,100.90 L 58.90,100.80 L 58.60,98.50 L 58.00,98.30 L 57.40,99.70 L 57.10,99.60 L 57.10,98.60 L 57.90,97.40 L 58.10,96.20 L 58.70,95.60 L 59.10,94.40 L 59.90,93.60 L 61.90,90.20 L 63.60,88.50 L 63.70,89.40 L 62.90,90.60 L 62.10,94.80 L 61.10,95.80 L 60.90,97.40 L 59.40,100.90 Z M 137.50,64.80 L 139.60,63.70 L 140.30,62.80 L 140.30,60.60 L 140.90,59.60 L 140.40,58.90 L 138.80,58.90 L 137.40,59.70 L 133.00,60.90 L 129.40,62.50 L 128.30,63.60 L 129.80,64.70 L 137.50,64.80 Z M 121.60,102.10 L 121.20,102.10 L 120.90,101.60 L 120.70,100.20 L 119.50,97.40 L 118.90,95.00 L 117.90,93.80 L 117.70,91.40 L 116.90,90.00 L 117.00,88.90 L 117.90,89.60 L 118.10,90.20 L 119.30,91.40 L 119.70,92.40 L 120.70,93.40 L 122.50,96.80 L 122.50,97.80 L 121.70,99.20 L 121.90,101.60 L 121.60,102.10 Z M 103.00,39.10 L 102.20,39.10 L 101.90,38.40 L 102.80,37.90 L 107.60,33.10 L 109.20,31.10 L 109.60,31.10 L 110.30,32.60 L 110.30,33.60 L 109.90,34.40 L 108.40,35.10 L 108.00,36.10 L 107.40,36.10 L 104.80,37.70 L 103.60,38.10 L 103.00,39.10 Z M 114.80,29.90 L 113.90,29.60 L 113.90,29.20 L 114.70,28.60 L 114.70,27.60 L 115.90,26.80 L 119.30,21.00 L 120.00,20.70 L 120.70,21.60 L 120.50,23.40 L 118.50,26.40 L 116.00,29.10 L 114.80,29.90 Z M 79.40,38.90 L 78.80,38.90 L 75.20,36.90 L 71.50,34.00 L 71.70,32.00 L 72.20,31.30 L 72.60,31.30 L 79.70,38.40 L 79.40,38.90 Z M 110.30,73.40 L 111.80,72.70 L 113.70,70.80 L 114.70,69.20 L 115.90,66.20 L 115.90,65.00 L 115.40,64.50 L 113.90,67.00 L 113.50,68.40 L 112.50,69.80 L 110.80,71.50 L 109.50,72.20 L 109.10,73.20 L 109.40,73.50 L 110.30,73.40 Z M 66.80,29.70 L 65.40,29.30 L 63.70,27.60 L 61.10,24.20 L 60.70,21.80 L 61.40,20.70 L 62.30,21.40 L 63.90,24.60 L 64.70,25.40 L 65.10,26.60 L 66.90,28.60 L 66.80,29.70 Z M 71.30,73.60 L 71.50,73.00 L 68.30,70.00 L 67.10,67.80 L 66.70,66.40 L 65.40,65.30 L 65.10,65.60 L 65.10,66.60 L 65.70,67.60 L 65.90,69.00 L 67.10,71.00 L 68.40,72.50 L 70.80,73.70 L 71.30,73.60 Z M 99.60,44.70 L 98.60,44.70 L 97.80,43.90 L 96.20,44.30 L 96.10,43.80 L 96.60,43.10 L 97.60,42.70 L 98.20,41.90 L 99.20,41.30 L 100.80,40.70 L 102.00,39.70 L 103.00,39.70 L 104.40,39.10 L 105.20,39.10 L 105.50,39.40 L 104.90,40.80 L 103.20,42.70 L 99.60,44.70 Z M 83.00,44.50 L 81.80,44.50 L 81.40,44.10 L 80.00,43.90 L 78.20,42.70 L 76.70,41.40 L 75.70,40.00 L 75.70,39.40 L 76.00,39.10 L 77.00,39.10 L 78.00,39.90 L 79.80,39.90 L 80.20,40.50 L 81.40,40.90 L 82.20,41.70 L 83.20,42.10 L 84.50,43.20 L 84.70,43.80 L 84.40,44.10 L 83.40,44.10 L 83.00,44.50 Z M 136.30,48.40 L 138.00,47.90 L 139.50,46.40 L 139.30,45.20 L 137.80,44.30 L 133.60,44.30 L 130.00,45.90 L 129.20,45.90 L 128.70,46.40 L 129.00,46.90 L 131.60,48.10 L 134.60,48.50 L 136.30,48.40 Z M 128.50,61.60 L 132.80,59.70 L 135.60,58.90 L 136.70,57.60 L 132.40,57.90 L 131.00,58.70 L 129.60,58.90 L 127.10,60.40 L 127.10,61.20 L 127.60,61.70 L 128.50,61.60 Z M 64.40,20.50 L 63.40,19.30 L 62.60,19.30 L 61.20,20.10 L 59.10,18.40 L 58.90,15.80 L 60.40,13.90 L 63.00,13.70 L 63.90,14.60 L 64.70,18.40 L 64.70,20.00 L 64.40,20.50 Z M 120.40,19.90 L 119.00,19.50 L 117.40,19.50 L 116.90,19.00 L 116.90,15.20 L 118.40,13.70 L 120.60,13.70 L 121.90,15.00 L 122.30,16.00 L 122.30,17.80 L 121.70,19.00 L 120.40,19.90 Z M 158.50,22.00 L 160.40,21.50 L 161.90,20.00 L 162.10,19.20 L 161.70,18.20 L 161.00,17.50 L 159.40,16.90 L 157.60,17.10 L 156.80,17.50 L 155.30,19.20 L 155.30,20.40 L 156.00,21.50 L 157.40,22.10 L 158.50,22.00 Z M 142.70,44.60 L 144.50,42.40 L 145.50,40.60 L 145.90,38.20 L 145.20,37.50 L 144.60,37.50 L 143.70,38.20 L 143.50,40.40 L 141.30,43.80 L 141.80,44.70 L 142.70,44.60 Z M 39.90,44.80 L 40.10,43.80 L 38.50,41.60 L 37.50,38.00 L 36.20,37.70 L 35.50,38.60 L 35.50,39.20 L 36.70,42.20 L 38.60,44.70 L 39.90,44.80 Z M 69.00,27.70 L 67.90,27.40 L 67.90,26.00 L 66.90,24.40 L 66.90,22.60 L 65.90,20.60 L 66.20,18.50 L 66.70,18.80 L 66.90,21.20 L 67.90,22.60 L 68.10,24.00 L 69.10,25.80 L 69.30,27.40 L 69.00,27.70 Z M 24.10,22.00 L 25.50,21.20 L 25.90,20.40 L 25.90,19.00 L 25.50,18.20 L 24.20,17.10 L 22.20,16.90 L 20.10,18.60 L 19.90,19.60 L 21.40,21.50 L 23.20,22.10 L 24.10,22.00 Z M 127.00,35.10 L 124.80,34.90 L 123.60,33.70 L 122.10,32.80 L 122.10,32.00 L 123.40,31.50 L 124.00,30.90 L 126.40,31.10 L 127.80,31.70 L 128.70,32.40 L 128.90,33.40 L 128.20,34.70 L 127.00,35.10 Z M 149.30,40.40 L 150.50,39.20 L 150.70,38.60 L 152.90,36.60 L 153.10,35.80 L 152.60,35.10 L 150.80,34.90 L 149.60,35.50 L 148.70,36.40 L 147.90,39.00 L 148.30,40.20 L 148.60,40.50 L 149.30,40.40 Z M 33.30,41.60 L 33.30,38.20 L 31.60,36.50 L 30.80,36.10 L 30.00,35.90 L 29.00,36.30 L 28.50,37.20 L 29.50,38.60 L 30.90,39.80 L 32.40,41.70 L 33.30,41.60 Z M 112.60,27.90 L 111.90,27.60 L 111.90,26.20 L 113.70,22.60 L 113.90,20.80 L 114.40,20.10 L 114.80,20.10 L 114.90,22.40 L 114.10,23.80 L 113.70,26.00 L 112.60,27.90 Z M 122.40,36.10 L 121.20,36.10 L 120.40,35.30 L 117.20,35.30 L 116.70,35.00 L 116.70,33.80 L 117.80,33.10 L 119.60,32.90 L 121.40,34.70 L 123.60,35.10 L 123.90,35.40 L 123.60,35.90 L 122.40,36.10 Z M 105.00,79.90 L 103.40,79.50 L 102.30,78.40 L 102.10,77.80 L 102.80,77.10 L 104.00,76.70 L 104.30,77.00 L 104.30,77.80 L 105.20,78.50 L 106.80,78.50 L 108.60,77.50 L 109.10,77.80 L 108.00,78.90 L 105.00,79.90 Z M 86.00,58.30 L 85.20,58.30 L 84.70,57.80 L 84.50,55.60 L 85.70,52.80 L 86.20,52.30 L 87.60,52.10 L 87.90,52.60 L 87.50,53.60 L 87.90,55.00 L 87.70,56.20 L 86.00,58.30 Z M 103.10,87.40 L 105.60,84.70 L 106.70,84.00 L 106.20,83.50 L 105.40,83.50 L 104.20,84.10 L 102.70,85.60 L 102.10,87.00 L 102.40,87.50 L 103.10,87.40 Z M 77.20,79.90 L 74.80,79.70 L 73.70,79.00 L 73.70,78.40 L 74.60,78.30 L 76.20,78.90 L 76.70,78.40 L 76.70,76.60 L 77.60,76.50 L 79.10,77.60 L 79.10,78.20 L 78.20,79.50 L 77.20,79.90 Z M 50.90,60.40 L 51.70,59.80 L 51.40,58.90 L 50.00,58.70 L 48.20,57.90 L 44.90,58.00 L 45.20,58.70 L 47.40,59.30 L 48.20,59.90 L 50.00,60.50 L 50.90,60.40 Z M 72.40,40.10 L 70.60,39.90 L 69.90,39.00 L 70.10,37.40 L 72.00,36.10 L 72.60,36.30 L 73.90,37.80 L 73.50,39.40 L 72.40,40.10 Z M 98.60,49.10 L 97.00,48.70 L 95.00,47.70 L 95.10,46.80 L 96.20,46.10 L 99.00,46.10 L 99.90,47.00 L 99.90,48.20 L 99.60,48.70 L 98.60,49.10 Z M 110.20,39.90 L 108.40,39.90 L 107.90,39.40 L 107.50,37.80 L 108.20,36.10 L 110.20,36.30 L 110.90,37.00 L 111.30,38.60 L 110.90,39.40 L 110.20,39.90 Z M 83.40,48.90 L 81.60,48.90 L 81.10,48.40 L 81.10,47.20 L 82.00,46.10 L 84.40,46.10 L 85.90,47.00 L 86.10,47.60 L 85.80,47.90 L 83.40,48.90 Z M 148.30,50.60 L 149.20,50.30 L 150.10,49.20 L 150.10,48.40 L 149.00,46.90 L 147.60,46.90 L 146.50,48.40 L 146.50,49.20 L 147.80,50.50 L 148.30,50.60 Z M 32.90,50.60 L 34.10,49.80 L 34.30,48.20 L 33.40,47.10 L 32.20,46.90 L 31.50,47.40 L 30.90,49.20 L 32.00,50.50 L 32.90,50.60 Z M 37.90,50.40 L 38.50,50.00 L 39.30,48.20 L 39.10,47.20 L 38.20,46.70 L 37.00,47.10 L 36.30,48.20 L 36.30,49.40 L 36.70,50.20 L 37.00,50.50 L 37.90,50.40 Z M 143.70,50.60 L 144.30,49.60 L 144.30,48.40 L 143.00,47.10 L 142.20,46.90 L 141.50,47.60 L 141.70,50.00 L 142.40,50.70 L 143.70,50.60 Z M 144.70,60.60 L 145.90,59.20 L 145.00,57.90 L 144.00,57.70 L 143.10,58.20 L 142.90,59.60 L 144.00,60.70 L 144.70,60.60 Z M 142.10,68.80 L 142.90,68.00 L 142.90,66.80 L 142.20,65.90 L 141.20,65.90 L 140.30,66.80 L 140.30,67.80 L 141.00,68.70 L 142.10,68.80 Z M 117.10,115.60 L 117.90,114.60 L 117.90,113.40 L 117.40,112.70 L 116.40,112.50 L 115.90,113.00 L 115.50,114.20 L 116.40,115.70 L 117.10,115.60 Z M 30.10,29.80 L 30.70,28.80 L 30.50,27.60 L 30.00,27.30 L 28.60,27.30 L 27.90,28.00 L 28.10,29.20 L 28.80,29.90 L 30.10,29.80 Z M 37.10,60.80 L 37.90,60.00 L 37.90,59.00 L 36.60,58.10 L 35.50,58.80 L 35.30,60.20 L 36.20,60.90 L 37.10,60.80 Z M 51.50,110.20 L 52.50,109.60 L 52.70,108.60 L 52.00,107.90 L 51.00,107.70 L 49.90,108.80 L 50.40,109.90 L 51.50,110.20 Z M 128.70,111.40 L 129.70,110.40 L 129.70,109.40 L 129.00,108.70 L 127.80,108.90 L 127.10,109.80 L 127.40,110.70 L 128.00,111.30 L 128.70,111.40 Z M 57.10,112.80 L 57.90,112.20 L 57.90,111.00 L 57.40,110.30 L 56.60,110.10 L 55.90,110.60 L 55.30,111.80 L 56.00,112.70 L 57.10,112.80 Z M 63.70,114.40 L 64.10,113.00 L 63.70,111.80 L 63.00,111.30 L 62.40,111.50 L 61.90,112.20 L 61.90,113.80 L 62.40,114.50 L 63.70,114.40 Z M 39.10,68.40 L 40.10,67.60 L 40.10,66.60 L 39.40,65.90 L 38.40,65.90 L 37.50,66.80 L 37.50,67.80 L 38.20,68.50 L 39.10,68.40 Z M 123.50,113.80 L 124.10,113.20 L 124.30,112.20 L 123.40,111.10 L 123.00,111.10 L 122.10,111.60 L 121.90,113.20 L 122.60,113.90 L 123.50,113.80 Z M 48.30,106.60 L 48.90,106.00 L 49.10,105.00 L 48.60,104.30 L 48.00,104.10 L 46.90,105.00 L 46.70,105.60 L 47.40,106.70 L 48.30,106.60 Z M 132.50,107.60 L 132.90,107.20 L 132.90,106.00 L 132.20,105.30 L 131.20,105.30 L 130.70,106.00 L 130.90,107.20 L 131.60,107.70 L 132.50,107.60 Z M 123.60,101.30 L 123.10,100.80 L 123.20,99.10 L 123.70,99.40 L 123.90,100.20 L 123.90,101.00 L 123.60,101.30 Z M 56.40,103.30 L 56.10,103.20 L 55.90,102.40 L 56.40,101.10 L 56.70,101.40 L 56.70,103.00 L 56.40,103.30 Z M 83.30,43.80 L 83.30,43.20 L 82.80,42.90 L 81.90,43.20 L 81.90,43.60 L 82.40,43.90 L 83.30,43.80 Z M 98.70,43.60 L 98.80,43.10 L 98.10,43.40 L 98.20,43.70 L 98.70,43.60 Z"/>
</svg>